HIERARCHY
ROOT Hips
{
	OFFSET -0.001795 -0.223333 0.028219
	CHANNELS 6 Xposition Yposition Zposition Zrotation Yrotation Xrotation 
	JOINT LeftUpLeg
	{
		OFFSET 0.069520 -0.091406 -0.006815
		CHANNELS 3 Zrotation Yrotation Xrotation
		JOINT LeftLeg
		{
			OFFSET 0.034277 -0.375199 -0.004496
			CHANNELS 3 Zrotation Yrotation Xrotation
			JOINT LeftFoot
			{
				OFFSET -0.013596 -0.397961 -0.043693
				CHANNELS 3 Zrotation Yrotation Xrotation
				JOINT LeftToe
				{
					OFFSET 0.026358 -0.055791 0.119288
					CHANNELS 3 Zrotation Yrotation Xrotation
					End Site
					{
						OFFSET 0.000000 0.000000 0.000000
					}
				}
			}
		}
	}
	JOINT RightUpLeg
	{
		OFFSET -0.067670 -0.090522 -0.004320
		CHANNELS 3 Zrotation Yrotation Xrotation
		JOINT RightLeg
		{
			OFFSET -0.038290 -0.382569 -0.008850
			CHANNELS 3 Zrotation Yrotation Xrotation
			JOINT RightFoot
			{
				OFFSET 0.015774 -0.398415 -0.042312
				CHANNELS 3 Zrotation Yrotation Xrotation
				JOINT RightToe
				{
					OFFSET -0.025372 -0.048144 0.123348
					CHANNELS 3 Zrotation Yrotation Xrotation
					End Site
					{
						OFFSET 0.000000 0.000000 0.000000
					}
				}
			}
		}
	}
	JOINT Spine
	{
		OFFSET -0.002533 0.108963 -0.026696
		CHANNELS 3 Zrotation Yrotation Xrotation
		JOINT Spine1
		{
			OFFSET 0.005487 0.135180 0.001092
			CHANNELS 3 Zrotation Yrotation Xrotation
			JOINT Spine2
			{
				OFFSET 0.001457 0.052922 0.025425
				CHANNELS 3 Zrotation Yrotation Xrotation
				JOINT Neck
				{
					OFFSET -0.002778 0.213870 -0.042857
					CHANNELS 3 Zrotation Yrotation Xrotation
					JOINT Head
					{
						OFFSET 0.005152 0.064970 0.051349
						CHANNELS 3 Zrotation Yrotation Xrotation
						End Site
						{
							OFFSET 0.000000 0.000000 0.000000
						}
					}
				}
				JOINT LeftShoulder
				{
					OFFSET 0.078845 0.121749 -0.034090
					CHANNELS 3 Zrotation Yrotation Xrotation
					JOINT LeftArm
					{
						OFFSET 0.090977 0.030469 -0.008868
						CHANNELS 3 Zrotation Yrotation Xrotation
						JOINT LeftForeArm
						{
							OFFSET 0.259612 -0.012772 -0.027456
							CHANNELS 3 Zrotation Yrotation Xrotation
							JOINT LeftHand
							{
								OFFSET 0.249234 0.008986 -0.001171
								CHANNELS 3 Zrotation Yrotation Xrotation
								End Site
								{
									OFFSET 0.000000 0.000000 0.000000
								}
							}
						}
					}
				}
				JOINT RightShoulder
				{
					OFFSET -0.081759 0.118833 -0.038615
					CHANNELS 3 Zrotation Yrotation Xrotation
					JOINT RightArm
					{
						OFFSET -0.096012 0.032551 -0.009143
						CHANNELS 3 Zrotation Yrotation Xrotation
						JOINT RightForeArm
						{
							OFFSET -0.253742 -0.013329 -0.021401
							CHANNELS 3 Zrotation Yrotation Xrotation
							JOINT RightHand
							{
								OFFSET -0.255298 0.007772 -0.005559
								CHANNELS 3 Zrotation Yrotation Xrotation
								End Site
								{
									OFFSET 0.000000 0.000000 0.000000
								}
							}
						}
					}
				}
			}
		}
	}
}
MOTION
Frames: 6
Frame Time: 0.050000
0.000000 0.921932 0.000000 1.630801 1.462031 2.346249 4.498754 -1.380472 -23.472841 -8.744565 1.749754 20.032510 8.880570 18.450083 3.452585 0.000000 0.000000 0.000000 0.422301 -0.248891 2.264164 0.911230 0.212536 10.440847 -3.436191 -5.824331 -8.491466 0.000000 0.000000 0.000000 4.126677 -0.876227 10.349684 -2.137712 1.022810 -0.772152 -2.955568 7.659449 7.957263 7.725230 -1.554105 -22.594100 0.000000 0.000000 0.000000 -21.419417 -11.257170 1.566336 -48.697213 -7.820942 -2.182872 -5.122090 -32.911368 2.111154 0.000000 0.000000 0.000000 17.239214 5.579717 3.613498 54.431355 16.620180 1.611630 0.396502 31.693672 1.934785 0.000000 0.000000 0.000000 
0.008753 0.920994 0.022659 1.484458 2.109944 2.380630 2.325182 -1.686844 -21.878799 -5.166391 0.653900 14.362607 6.754729 14.676452 4.206107 0.000000 0.000000 0.000000 0.263035 -0.355251 3.334781 0.678285 0.291384 11.937224 -3.790194 -7.386450 -7.632638 0.000000 0.000000 0.000000 3.852589 -0.856972 10.386720 -1.295491 0.686768 -3.689669 -3.328597 8.601548 10.136739 8.402953 -1.185788 -26.356706 0.000000 0.000000 0.000000 -21.509557 -10.454761 0.759740 -47.596387 -7.877036 -2.169304 -7.951558 -33.210592 2.878221 0.000000 0.000000 0.000000 16.916700 5.238851 3.779720 55.123793 17.017734 1.664739 -0.578640 30.802153 1.723677 0.000000 0.000000 0.000000 
0.019333 0.920515 0.049065 1.258012 1.048868 0.828210 1.725607 -1.609338 -20.199280 -4.420072 0.521078 15.035985 8.112078 17.209504 6.121724 0.000000 0.000000 0.000000 -1.235063 -0.431454 5.087715 1.474338 0.226492 15.357366 -3.486098 -6.688757 -6.505516 0.000000 0.000000 0.000000 3.593104 -0.784044 10.205156 -2.480298 1.199639 -3.444795 -2.813701 9.901558 11.701342 9.203361 -1.717741 -25.402619 0.000000 0.000000 0.000000 -19.106526 -11.935145 1.721299 -48.599854 -9.726662 -1.764384 -5.910890 -30.655205 2.099077 0.000000 0.000000 0.000000 16.074435 4.850318 3.627093 55.090592 18.353820 2.202666 -1.137787 29.722696 1.549724 0.000000 0.000000 0.000000 
0.031050 0.921002 0.079120 0.993169 1.238694 0.097219 0.389544 -1.526365 -16.924654 -4.582542 0.549127 13.905107 8.585641 18.001143 6.064462 0.000000 0.000000 0.000000 -1.727491 -0.314749 4.067826 1.689920 0.328360 22.943417 -3.567287 -7.584499 -4.708362 0.000000 0.000000 0.000000 3.024929 -0.653653 9.241133 -1.999995 0.986592 -2.813767 -2.535667 10.384493 12.864298 9.592540 -1.965440 -24.877137 0.000000 0.000000 0.000000 -18.732851 -13.101209 2.221855 -48.328081 -10.583135 -1.457205 -4.580043 -32.178074 1.768809 0.000000 0.000000 0.000000 14.981346 4.709147 3.556369 55.353694 18.154371 2.136856 -0.687557 31.252738 1.847520 0.000000 0.000000 0.000000 
0.042219 0.925194 0.111166 0.981335 0.926363 -0.996439 -0.391778 -1.181060 -12.362249 -4.312480 0.495405 11.799819 8.743130 18.192307 5.273167 0.000000 0.000000 0.000000 -3.734017 0.035501 0.490321 2.806757 0.131743 34.436325 -2.397153 -6.072765 -0.021292 0.000000 0.000000 0.000000 2.036087 -0.531373 8.875932 -1.422474 0.717389 -2.109176 -2.547876 10.638418 12.769114 9.743687 -2.124341 -24.401631 0.000000 0.000000 0.000000 -17.549498 -14.039760 2.770613 -48.864937 -11.576176 -1.106447 -3.305735 -32.916711 1.383967 0.000000 0.000000 0.000000 13.891019 4.668647 3.377829 55.875259 17.945023 2.249030 -1.440220 32.483666 1.758003 0.000000 0.000000 0.000000 
0.050857 0.927726 0.142875 0.971971 0.996347 -1.756310 -0.548169 -0.784220 -8.155508 -4.587271 0.545465 9.885234 8.133475 16.963160 3.350316 0.000000 0.000000 0.000000 -4.796391 0.377001 -5.175050 3.874159 -0.334421 46.808879 -1.557217 -6.040465 5.662092 0.000000 0.000000 0.000000 1.917323 -0.525885 9.030383 -1.634425 0.825566 -2.786414 -2.254554 9.212148 13.854242 10.337268 -2.652847 -24.578055 0.000000 0.000000 0.000000 -16.757562 -14.914498 3.719523 -48.757651 -12.702150 -0.927039 -2.515354 -34.953390 1.376419 0.000000 0.000000 0.000000 13.118483 4.966179 3.182430 56.403560 18.186636 2.392738 -1.000522 34.233303 1.952258 0.000000 0.000000 0.000000 
